<svg id="图层_1" data-name="图层 1" xmlns="http://www.w3.org/2000/svg" viewBox="0 0 1320.81 394.3"><defs><style>.cls-1{fill:#231815;}.cls-2{fill:#e60012;}</style></defs><title>矢量智能对象</title><path class="cls-1" d="M-1276.42-846.36q14.19,1.1,7.28,9.83-11.65,11.28-36,6.91a624.78,624.78,0,0,0-92.79-7.28q1.46,48.4,0,87.7a1438.07,1438.07,0,0,1,147.73,5.45q7.63,2.19,2.18,9.1-15.64,13.47-32.74,9.82a856.1,856.1,0,0,0-117.89-13.46q.35,16.74,0,29.84,45.11-3.27,97.15,1.09,6.9,1.83,2.18,8.37-12.73,10.92-29.47,7.28a282.13,282.13,0,0,0-69.86-5.83q1.44,29.47-3.65,53.13-6.54,19.65-9.82,1.45a484,484,0,0,1-.73-53.48,611.32,611.32,0,0,0-91,4.73q-16,.74-8.74-8.37,11.65-13.11,34.94-11.65,31.28,2.19,64,4.37v-30.93q-65.51.74-140.09,9.83-16.38,1.08-5.83-9.83,10.18-11.64,28.75-12.37,58.59-.36,117.89,1.46-.74-41.85,0-87.7-40.38-1.08-113.52,8.37-23.29,2.19-12.74-9.09,8-9.46,18.92-9.83Q-1399.77-852.91-1276.42-846.36Zm-201.94-42.93-.73-17.47q.72-8.73,13.1-10.55,6.18-1.46,5.09,10.55a145.93,145.93,0,0,1-2.54,17.47,242,242,0,0,1,26.92,2.18q7.27,1.83-.73,4.73a227.8,227.8,0,0,1-28,4,85.48,85.48,0,0,1-1.46,19.29q-3.65,9.09-7.28-1.09-2.18-8.37-3.63-17.1-27.66,4.37-56.77,7.64-20.37,1.82-9.1-11.65,9.84-10.9,44.4-9.09Zm-12,83.32q.72-13.1,12-15.28,8-2.18,6.18,12-1.1,7.63-2.54,14.19a252.67,252.67,0,0,1,35.65,3.27q6.91,1.83-1.81,4.73a340.39,340.39,0,0,1-34.94,4,85.39,85.39,0,0,1-1.45,19.28q-3.64,10.18-7.28,1.09a104.62,104.62,0,0,1-3.27-20.37q-13.11,1.81-27.29,3.63-24,3.28-15.29-7.64,6.92-9.45,20.74-8.73l20,.73Zm140.45-73.5a194.71,194.71,0,0,1-39.3-1.09q-7.27-2.18,1.82-4.73,19.29-2.54,37.48-4a139.59,139.59,0,0,1,.37-17.47q1.44-12.72,12.37-6.18,9.45,6.91,3.27,21.46,28.38-.72,56.76-.36,16,1.1,5.83,14.19-7.29,8-21.47,5.82-21.11-3.27-42.94-6.55a107.32,107.32,0,0,1-4.73,16.38q-8,14.93-9.46-.73Zm71.68,83.69q6.18,2.19-1.45,4.73-21.11,2.55-42.21,5.82a65.6,65.6,0,0,1-3.27,19.29q-7.29,17.82-10.92,1.45a109.26,109.26,0,0,1-.73-21.83q-17.46,1.1-33.11,2.18-20,1.83-8.73-11.28,8-8,20-6.18,11.64,1.1,21.83,1.09a57.9,57.9,0,0,1,2.55-14.92q4.73-13.1,9.82-2.18a93.3,93.3,0,0,1,2.55,18.19A333,333,0,0,1-1278.24-795.78Z" transform="translate(1563.64 923.13)"/><path class="cls-1" d="M-1161.41-696.81a470.87,470.87,0,0,1-37.48,31.66q-13.45,9.82-34.93,3.27-8-4.73,3.28-10.91,32.38-16,66.58-29.11Q-1153.78-704.81-1161.41-696.81Zm-68-103.7q14.91-9.82,33.11,3.64a201,201,0,0,1,20.38,17.1q5.81,6.91-2.91,5.46A272.31,272.31,0,0,1-1228.36-790Q-1237.09-795-1229.45-800.51Zm38.21-99.7q16-6.56,28.74,4.73,9.46,8,17.83,16.38,6.56,7.64-4.37,5.45a251.67,251.67,0,0,1-44-16.37Q-1200.71-895.1-1191.24-900.21Zm107.33,83.33q0-21.11.73-34.21l-36,3.28q-14.57.36-8.73-8.37,7.28-10.92,24.74-9.46a168.54,168.54,0,0,1,20,2.54q-1.46-21.82,4.73-46.57,5.46-14.19,9.1-.36a267.45,267.45,0,0,1,1.09,45.85q29.84-2.55,67.32,0,.72-20,3.27-40,3.27-12.36,8.37,0a117.88,117.88,0,0,1,3.27,40q33.1-4.74,53.13-2.19,12,3.29-.37,14.56-8,4.37-25.47,1.81L-986-852.18q-.36,14.19-.72,33.11,30.56-2.53,75-2.18,5.46,4.37-.36,11.64-14.19,12-30.93,8.37a396.42,396.42,0,0,0-59.67-5.82q41.47,29.85,110.61,70.23,5.82,4.73-2.91,8.37-25.11,7.63-40.39-4.73-39.66-36.75-81.87-70.59-11.64-6.91-29.11-3.28-32.74,40.75-79.32,73.14-16.74,10.56-38.93,2.91-10.56-5.09,2.91-10.92,60-24.74,101.52-64-29.48,0-73.5,11.65-17.48,3.63-10.56-10.19,7.27-14.93,30.2-14.56Zm30.57,47.66q21.46-3.63,50.58.73,19.28,2.55,17.1,37.12-3.65,26.93-78.23,20.74-.73,39.66,37.84,41.84a348.6,348.6,0,0,0,76-7.28q9.45-1.09,2.18,9.83-13.47,17.1-35.66,17.46-44.76.36-75.32-12-17.46-8.75-18.19-32.39a391.48,391.48,0,0,1,.36-56Q-1075.54-764.84-1053.34-769.22ZM-1068.26-818a437.2,437.2,0,0,1,66.59,0,176.77,176.77,0,0,0,.73-35.29q-37.49-3.63-67.32,0A171.23,171.23,0,0,0-1068.26-818Zm5.46,97.52q55.66,3.27,60-9.1,4.72-25.46-8-28.74-23.28-4.73-42.93,2.18Q-1063.18-752.85-1062.8-720.46Z" transform="translate(1563.64 923.13)"/><path class="cls-1" d="M-828.44-697.9a441,441,0,0,1-25.84,37.12q-10.19,12-30.2,8.36-7.63-2.55,3.64-12,23.64-20.73,49.12-39.29Q-824.08-708.44-828.44-697.9Zm-4.73-201.94q27.64-2.19,62.22,2.54Q-752-894.37-750.21-874q5.09,67.32-2.92,123-5.45,21.1-26.56,21.83-33.48,2.18-59.31-.37-25.83-2.91-27.65-27.28-3.65-51.31-.73-111.71Q-865.92-898.39-833.17-899.84Zm-17.47,99.33q35.29,4.37,82.23,0,4.36-12.36,0-35.29-44-6.56-81.14-1.1Q-853.19-812.88-850.64-800.51Zm17.83,57.85q27.64,5.1,52.76-3.27,15.28-6.18,12.74-38.21-44-4.36-83.33,1.1Q-851-746.65-832.81-742.66Zm-16.74-110.61q38.2,6.19,84-1.09-1.08-26.21-13.46-30.2-30.56-7.28-51.3-2.91Q-852.46-883.46-849.55-853.27Zm56,152.82q16.37-6.54,28.74,7.28a300.89,300.89,0,0,1,22.2,26.56q5.09,8.75-3.64,5.46A505.65,505.65,0,0,1-791-688.08Q-803.34-696.81-793.51-700.45Zm81.14-127.35q-21.84,2.19-12-10.19,8.37-10.18,24.38-9.82,31.29-1.46,74.23,2.18-1.47-28.74,2.91-67.31,3.63-15.28,8.37,0,5.46,39.66,2.91,66.22,30.55-1.46,59.31-.73,8.73.74,5.09,6.92-10.19,12-23.29,9.46a288,288,0,0,0-40.38-4.73q2.9,91-2.19,175-4.73,23.64-8.73,3.63-4-63.3-2.18-125.89a340.85,340.85,0,0,1-73.87,66.58q-15.64,9.47-36,2.91-10.18-4.37,3.28-10.55,54.93-26.19,105.88-68.77V-835.8Q-660.35-835.44-712.37-827.8Z" transform="translate(1563.64 923.13)"/><path class="cls-1" d="M-382.32-915.49q5.1-15.28,10.19,0a62.09,62.09,0,0,1,1.82,27.29q56-4.72,105.52,4.37,23.66,6.18,21.83,68-3.64,26.19-8.37,5.09-7.28-54.93-21.83-59.31-43.3-12-197.94-2.18-25.11,2.55-33.84,64-5.1,23.65-9.1-2.18-2.91-26.56,7.28-53.49,10.54-26.56,95.33-23.65a272,272,0,0,0,28-.73A61.55,61.55,0,0,1-382.32-915.49Zm-65.86,167.38q76.05-5.46,144.82,2.91,19.65,3.65,21.1,30.2a276.23,276.23,0,0,1-.72,40.39q-2.92,18.18-16,21.47a539.21,539.21,0,0,1-149.19.36q-19.65-2.93-21.83-21.83a433.84,433.84,0,0,1-.73-50.22q1.1-17.1,22.56-22.19Zm17.1-105.16a518.69,518.69,0,0,1,129.54,4q30.92,7.65-2.18,9.1-47.68-4.37-105.16,0-41.13,6.55-54.22,2.91-18.56-9.45,22.93-14.92Zm-25.47,130.63q-2.55,8.37,4.37,11.64,37.11,9.82,60.76.37,13.83-7.65,1.1-23.29-22.57-7.65-54.95.36Q-454.36-729.91-456.55-722.64Zm4,33.84q-7.29,19.29,9.09,24.74,31.67,8.73,53.13,3.64,12.36-19.65-2.19-28.75-19.29-8-42.57-4.36Q-448.17-692.07-452.54-688.8Zm20-127.72q57.48-19.28,106.61,5.82Q-300.45-798-311-781.95q-9.11,12.38-28.75,15.64-53.47,6.55-101.52-6.91-16.73-17.46-2.54-38.21ZM-436.17-795q0,8.37,7.64,10.91,47.67,12,96.79-.72,14.55-8.37-6.55-17.83a171.56,171.56,0,0,0-86.6-1.82Q-436.17-801.24-436.17-795ZM-367-664.79q36,7.27,64-1.09,10.19-12-1.81-25.11-26.94-6.54-62.23,0A30.94,30.94,0,0,0-367-664.79Zm0-69.13q-5.46,16.74,0,24.38,36,8.37,63.32-1.46,9.83-5.82.72-21.47Q-337.92-740.46-367-733.92Z" transform="translate(1563.64 923.13)"/><path class="cls-2" d="M-1476-531.28h-11.72v-36.13h-48.34v36.13h-11.72v-82h11.72v34.18h48.34v-34.18H-1476Z" transform="translate(1563.64 923.13)"/><path class="cls-2" d="M-1365.9-565.95q0,22-13.18,31.26-8.79,5.85-22,5.85t-22-5.85q-13.17-9.27-13.18-31.26v-47.36H-1425v47.36q0,25.89,23.93,25.89t23.92-25.89v-47.36h11.23Z" transform="translate(1563.64 923.13)"/><path class="cls-2" d="M-1237.2-531.28h-12.7l-8.79-19.53h-46.87l-7.82,19.53h-12.69l34.18-82h8.79q6.33,0,9.76,2.93,2.94,2.45,5.86,9.28Zm-26.37-31.25-15.63-36.13c-1-2.27-2.28-3.42-3.9-3.42h-1l-16.6,39.55Z" transform="translate(1563.64 923.13)"/><path class="cls-2" d="M-1125.6-531.28h-33.21q-16.61,0-25.38-6.34-13.18-9.27-13.19-34.67t13.19-35.16q8.78-5.85,25.38-5.86h32.72v11.72h-32.72q-12.69,0-18.06,3.42-8.79,6.84-8.79,25.88t8.79,25.39q5.37,3.92,18.06,3.9h21.49v-12.2q0-6.84-2.44-9.77c-1.63-1.62-4.57-2.44-8.79-2.44h-14.65v-11.23h14.65q23,0,23,23.44Z" transform="translate(1563.64 923.13)"/><path class="cls-2" d="M-996.91-531.28h-12.69l-8.79-19.53h-46.88l-7.81,19.53h-12.7l34.18-82h8.79q6.35,0,9.77,2.93,2.93,2.45,5.86,9.28Zm-26.37-31.25-15.62-36.13c-1-2.27-2.28-3.42-3.91-3.42h-1l-16.61,39.55Z" transform="translate(1563.64 923.13)"/><path class="cls-2" d="M-888.72-531.28H-900l-45.41-65.92v65.92h-11.71v-82h13.18l43.94,62.5v-62.5h11.24Z" transform="translate(1563.64 923.13)"/><path class="cls-2" d="M-777.12-531.28h-33.21q-16.6,0-25.39-6.34-13.17-9.27-13.18-34.67t13.18-35.16q8.79-5.85,25.39-5.86h32.72v11.72h-32.72q-12.69,0-18.06,3.42-8.79,6.84-8.79,25.88t8.79,25.39Q-823-543-810.33-543h21.49v-12.2q0-6.84-2.44-9.77c-1.63-1.62-4.56-2.44-8.79-2.44h-14.65v-11.23h14.65q22.94,0,23,23.44Z" transform="translate(1563.64 923.13)"/><path class="cls-2" d="M-668-531.28h-30.76q-38.58,0-38.58-41t38.58-41H-668v11.72h-30.76q-12.21,0-18.07,4.39-9.29,6.86-9.28,24.91t9.28,24.41q5.87,4.89,18.07,4.88H-668Z" transform="translate(1563.64 923.13)"/><path class="cls-2" d="M-539.27-531.28H-552l-8.79-19.53h-46.88l-7.81,19.53h-12.7l34.18-82h8.79q6.34,0,9.77,2.93,2.92,2.45,5.86,9.28Zm-26.37-31.25-15.62-36.13c-1-2.27-2.28-3.42-3.91-3.42h-1l-16.6,39.55Z" transform="translate(1563.64 923.13)"/><path class="cls-2" d="M-479.91-531.28h-11.72v-82h11.72Z" transform="translate(1563.64 923.13)"/><path class="cls-2" d="M-368.8-601.59h-52.73v20.51h48.34v11.72h-48.34v38.08h-11.23v-82h64Z" transform="translate(1563.64 923.13)"/><path class="cls-2" d="M-258.66-565.95q0,22-13.18,31.26-8.79,5.85-22,5.85t-22-5.85Q-329-544-329-565.95v-47.36h11.23v47.36q0,25.89,23.92,25.89t23.93-25.89v-47.36h11.23Z" transform="translate(1563.64 923.13)"/></svg>